<svg width="176" height="275" viewBox="0 0 176 275" fill="none" xmlns="http://www.w3.org/2000/svg">
<circle cx="92.5" cy="195.5" r="5.5" transform="rotate(-180 92.5 195.5)" fill="white" fill-opacity="0.4"/>
<circle cx="121.5" cy="195.5" r="5.5" transform="rotate(-180 121.5 195.5)" fill="white" fill-opacity="0.2"/>
<circle cx="150.5" cy="195.5" r="5.5" transform="rotate(-180 150.5 195.5)" fill="white" fill-opacity="0.1"/>
<circle cx="92.5" cy="137.5" r="5.5" transform="rotate(-180 92.5 137.5)" fill="white" fill-opacity="0.4"/>
<circle cx="121.5" cy="137.5" r="5.5" transform="rotate(-180 121.5 137.5)" fill="white" fill-opacity="0.2"/>
<circle cx="150.5" cy="137.5" r="5.5" transform="rotate(-180 150.5 137.5)" fill="white" fill-opacity="0.1"/>
<circle cx="92.5" cy="166.5" r="5.5" transform="rotate(-180 92.5 166.5)" fill="white" fill-opacity="0.4"/>
<circle cx="121.5" cy="166.5" r="5.5" transform="rotate(-180 121.5 166.5)" fill="white" fill-opacity="0.2"/>
<circle cx="150.5" cy="166.5" r="5.5" transform="rotate(-180 150.5 166.5)" fill="white" fill-opacity="0.1"/>
<circle cx="92.5" cy="108.5" r="5.5" transform="rotate(-180 92.5 108.5)" fill="white" fill-opacity="0.4"/>
<circle cx="121.5" cy="108.5" r="5.5" transform="rotate(-180 121.5 108.5)" fill="white" fill-opacity="0.2"/>
<circle cx="150.5" cy="108.5" r="5.5" transform="rotate(-180 150.5 108.5)" fill="white" fill-opacity="0.1"/>
<circle cx="63.5" cy="195.5" r="5.5" transform="rotate(-180 63.5 195.5)" fill="white" fill-opacity="0.6"/>
<circle cx="63.5" cy="137.5" r="5.5" transform="rotate(-180 63.5 137.5)" fill="white" fill-opacity="0.6"/>
<circle cx="63.5" cy="166.5" r="5.5" transform="rotate(-180 63.5 166.5)" fill="white" fill-opacity="0.6"/>
<circle cx="63.5" cy="108.5" r="5.5" transform="rotate(-180 63.5 108.5)" fill="white" fill-opacity="0.6"/>
<circle cx="34.5" cy="195.5" r="5.5" transform="rotate(-180 34.5 195.5)" fill="white" fill-opacity="0.8"/>
<circle cx="34.5" cy="137.5" r="5.5" transform="rotate(-180 34.5 137.5)" fill="white" fill-opacity="0.8"/>
<circle cx="34.5" cy="166.5" r="5.5" transform="rotate(-180 34.5 166.5)" fill="white" fill-opacity="0.8"/>
<circle cx="34.5" cy="108.5" r="5.5" transform="rotate(-180 34.5 108.5)" fill="white" fill-opacity="0.8"/>
<circle cx="5.5" cy="195.5" r="5.5" transform="rotate(-180 5.5 195.5)" fill="white" fill-opacity="0.85"/>
<circle cx="5.5" cy="137.5" r="5.5" transform="rotate(-180 5.5 137.5)" fill="white" fill-opacity="0.85"/>
<circle cx="5.5" cy="166.5" r="5.5" transform="rotate(-180 5.5 166.5)" fill="white" fill-opacity="0.85"/>
<circle cx="5.5" cy="108.5" r="5.5" transform="rotate(-180 5.5 108.5)" fill="white" fill-opacity="0.85"/>
<path opacity="0.5" d="M20 0V245H176" stroke="white"/>
<path opacity="0.5" d="M176 66H49V274C49 274 216.844 274 176 274" stroke="white"/>
</svg>
